<?xml version="1.0" standalone="no"?>
<!DOCTYPE svg PUBLIC "-//W3C//DTD SVG 20010904//EN"
 "http://www.w3.org/TR/2001/REC-SVG-20010904/DTD/svg10.dtd">
<svg version="1.0" xmlns="http://www.w3.org/2000/svg"
 width="100.000000pt" height="100.000000pt" viewBox="0 0 225.000000 225.000000"
 preserveAspectRatio="xMidYMid meet">
<metadata>
Created by potrace 1.10, written by Peter Selinger 2001-2011
</metadata>
<g transform="translate(0.000000,225.000000) scale(0.100000,-0.100000)"
fill="#000000" stroke="none">
<path d="M1760 2001 c-68 -6 -92 -18 -167 -77 -35 -29 -153 -173 -153 -187 0
-3 11 -8 24 -11 39 -10 141 -92 161 -130 11 -20 22 -36 26 -36 12 0 37 36 58
85 12 28 50 78 86 116 36 37 65 70 65 73 0 3 -11 1 -24 -4 -14 -5 -37 -5 -54
-1 -30 9 -95 1 -143 -17 -60 -24 -80 34 -24 70 19 13 35 28 35 34 0 22 39 47
65 42 14 -3 30 1 36 8 14 17 81 18 97 2 7 -7 12 -19 12 -29 0 -26 -39 -69 -64
-69 -26 0 -66 38 -66 63 0 20 -19 22 -45 3 -26 -19 -13 -50 17 -41 22 6 22 6
4 -9 -12 -10 -24 -12 -30 -7 -15 13 -76 -14 -76 -34 0 -19 29 -19 58 1 12 8
22 12 22 7 0 -10 158 0 183 11 10 5 22 17 28 27 8 15 6 19 -8 19 -11 1 -4 7
15 15 35 15 35 22 -1 63 -21 23 -24 23 -137 13z m-3 -193 c14 -20 10 -30 -26
-68 -19 -19 -45 -52 -58 -73 l-24 -38 -61 56 c-34 30 -67 55 -75 55 -20 0 -16
16 11 47 22 25 27 26 45 16 12 -7 30 -13 41 -13 13 0 18 -4 15 -11 -5 -7 -1
-8 11 -1 34 17 90 39 105 41 4 1 11 -5 16 -11z"/>
<path d="M970 1971 c-128 -43 -337 -141 -398 -188 -39 -29 -37 -49 3 -45 56 7
262 85 352 133 106 57 188 81 282 82 110 1 160 -39 169 -135 4 -48 14 -67 34
-68 14 0 -4 96 -28 146 -36 76 -66 88 -229 91 -104 2 -141 -1 -185 -16z"/>
<path d="M1762 1958 c-19 -19 -14 -46 13 -64 24 -16 27 -16 45 1 34 31 19 75
-25 75 -12 0 -26 -5 -33 -12z"/>
<path d="M1110 1913 c-85 -29 -129 -77 -116 -127 5 -22 10 -25 24 -17 43 23
151 33 229 22 43 -6 88 -14 101 -17 18 -5 22 -2 22 17 -1 36 -35 104 -61 123
-30 21 -138 21 -199 -1z m189 -34 c25 -23 26 -67 1 -59 -8 3 -67 5 -132 5 -64
0 -119 3 -123 6 -3 4 22 21 56 38 78 39 162 43 198 10z"/>
<path d="M1896 1864 c-10 -25 -47 -76 -82 -115 -35 -38 -64 -72 -64 -75 0 -8
69 34 96 58 23 20 79 149 73 167 -2 6 -12 -10 -23 -35z"/>
<path d="M947 1849 c-20 -12 -71 -88 -63 -96 12 -13 106 77 106 101 0 9 -23 7
-43 -5z"/>
<path d="M765 1775 c-55 -19 -101 -35 -102 -35 -2 0 -3 -5 -3 -11 0 -18 124
-5 161 17 32 19 69 64 53 64 -5 0 -54 -16 -109 -35z"/>
<path d="M1065 1756 l-40 -12 23 -15 c17 -13 32 -14 65 -8 23 4 63 5 90 2 42
-5 47 -4 47 15 0 11 -7 23 -16 26 -26 10 -126 5 -169 -8z"/>
<path d="M1270 1737 c0 -20 6 -26 33 -31 17 -3 56 -18 86 -31 49 -23 56 -24
70 -10 14 13 13 16 -4 30 -23 17 -106 49 -152 60 -30 6 -33 5 -33 -18z"/>
<path d="M892 1705 c-29 -13 -67 -35 -85 -47 -18 -13 -33 -21 -34 -18 -1 3 -3
3 -5 0 -2 -3 -1 -4 1 -3 2 1 20 -6 41 -17 36 -19 37 -19 71 2 19 12 61 32 94
46 72 29 71 28 55 47 -18 22 -77 18 -138 -10z"/>
<path d="M1108 1703 c-51 -8 -29 -20 90 -48 162 -39 201 -60 308 -171 96 -98
121 -115 103 -66 -52 138 -195 247 -365 277 -81 15 -89 15 -136 8z"/>
<path d="M1483 1653 c-22 -15 -22 -15 35 -69 61 -57 73 -62 91 -40 10 11 5 22
-20 50 -17 20 -43 45 -58 55 -23 17 -28 17 -48 4z"/>
<path d="M950 1625 c-57 -28 -93 -56 -160 -123 -179 -180 -274 -434 -228 -608
10 -36 23 -55 58 -83 25 -19 65 -53 89 -74 l43 -39 152 5 c106 3 172 10 221
24 217 60 383 205 439 382 29 93 44 234 27 255 -7 8 -43 24 -81 35 l-68 21
-22 64 c-24 72 -40 91 -72 83 -14 -4 -31 2 -50 19 -35 28 -38 29 -85 9 -19 -8
-36 -15 -38 -15 -1 0 -1 10 -1 23 1 16 -9 27 -34 39 -54 28 -106 23 -190 -17z
m197 -21 c7 -19 -27 -87 -71 -139 l-31 -37 -84 41 c-46 22 -86 42 -88 45 -8 8
72 56 134 82 69 28 131 32 140 8z m132 -43 c10 -10 20 -24 23 -31 3 -10 9 -10
26 1 27 17 53 4 62 -32 22 -81 26 -72 -51 -109 l-70 -34 -82 28 c-45 16 -85
32 -89 35 -12 11 77 126 112 143 44 22 46 22 69 -1z m-354 -102 c71 -33 72
-39 15 -107 -27 -33 -57 -62 -65 -66 -12 -4 -141 37 -153 49 -7 7 23 51 66 97
51 55 70 58 137 27z m563 -89 c57 -15 66 -30 59 -103 -6 -70 -44 -200 -57
-195 -5 2 -41 35 -81 73 -63 60 -74 77 -85 122 -9 39 -9 55 0 62 28 23 102 60
113 56 6 -2 30 -9 51 -15z m-347 -14 c109 -41 118 -46 124 -80 4 -17 9 -39 11
-48 4 -12 -12 -26 -56 -52 -34 -20 -71 -36 -83 -36 -26 0 -179 61 -202 80 -26
22 -17 49 36 106 60 63 76 66 170 30z m-364 -80 c28 -9 54 -24 57 -32 13 -35
-66 -144 -104 -144 -34 0 -100 19 -100 29 0 18 39 121 56 146 9 14 22 24 28
22 6 -2 34 -12 63 -21z m232 -135 c47 -26 86 -52 88 -57 2 -5 -23 -36 -56 -68
l-59 -58 -88 35 c-49 19 -93 42 -98 50 -8 12 4 31 48 81 32 36 63 66 69 66 7
0 50 -22 96 -49z m382 -48 c38 -36 69 -71 69 -77 0 -14 -97 -109 -157 -155
l-42 -32 -16 24 c-24 38 -93 211 -88 220 11 18 127 87 146 87 10 0 50 -30 88
-67z m-728 -22 c73 -32 69 -74 -12 -119 -36 -20 -42 -21 -47 -7 -6 15 4 145
11 145 2 0 23 -9 48 -19z m501 -143 c44 -122 45 -119 -58 -146 -48 -13 -94
-21 -101 -18 -11 4 -29 70 -30 110 0 8 144 123 156 125 4 1 19 -32 33 -71z
m-312 35 c46 -25 50 -30 45 -58 -3 -16 -15 -55 -26 -86 -34 -89 -60 -87 -184
7 l-76 58 92 53 c51 28 94 52 96 52 2 1 26 -11 53 -26z m102 -190 c7 -21 4
-23 -34 -23 -38 0 -41 2 -35 23 4 12 14 37 23 55 l17 32 11 -32 c6 -18 14 -43
18 -55z"/>
<path d="M728 1580 c-57 -47 -83 -87 -68 -105 20 -24 35 -18 101 46 60 58 62
62 44 75 -27 20 -36 18 -77 -16z"/>
<path d="M1612 1517 c-16 -19 31 -133 70 -172 l30 -30 -6 48 c-8 64 -47 161
-67 165 -9 1 -21 -3 -27 -11z"/>
<path d="M1801 1520 c-18 -4 -45 -19 -58 -33 -22 -22 -24 -27 -12 -48 8 -15
14 -68 15 -136 2 -63 8 -122 15 -135 23 -42 39 -123 39 -198 1 -66 2 -73 15
-57 7 11 39 98 70 195 50 156 57 184 53 241 -4 57 -8 67 -36 92 -37 33 -55 35
-96 14 -35 -19 -43 -14 -17 9 29 26 86 32 117 11 66 -43 71 -155 15 -328 l-39
-117 20 -52 c15 -40 18 -66 14 -108 -6 -53 -6 -54 8 -24 67 147 101 480 59
575 -22 49 -74 99 -103 99 -10 0 -24 2 -32 4 -7 2 -28 0 -47 -4z m62 -91 c14
-6 30 -22 36 -36 21 -46 12 -141 -20 -208 -6 -11 -11 -30 -12 -42 0 -12 -3
-20 -6 -17 -3 2 -10 -6 -17 -18 -12 -22 -13 -22 -19 -3 -4 11 -14 36 -23 55
-10 22 -18 76 -21 148 l-6 113 30 8 c17 5 31 10 32 10 1 1 13 -4 26 -10z"/>
<path d="M577 1403 c-33 -45 -67 -105 -67 -118 0 -8 63 -6 76 3 6 4 31 39 56
79 45 68 46 71 25 77 -43 11 -56 5 -90 -41z"/>
<path d="M1630 1278 l0 -86 34 -26 c41 -31 46 -24 46 63 0 53 -3 59 -40 96
l-40 39 0 -86z"/>
<path d="M508 1249 c-32 -18 -63 -159 -35 -159 44 1 57 13 78 79 12 36 24 72
27 79 5 15 -45 16 -70 1z"/>
<path d="M413 1221 c-69 -50 -113 -134 -113 -218 l0 -34 59 63 c47 49 62 74
72 113 6 28 18 62 26 78 17 35 6 34 -44 -2z"/>
<path d="M1598 1112 l-18 -57 41 -37 41 -38 -26 -44 c-24 -41 -46 -66 -46 -51
0 3 12 24 27 46 l27 41 -34 29 c-36 30 -50 35 -50 20 0 -5 -16 -32 -35 -60
-41 -59 -42 -64 -14 -103 l21 -29 29 27 c16 15 29 23 29 18 0 -15 -128 -136
-173 -163 -21 -13 -36 -26 -33 -29 9 -8 84 48 145 108 31 30 78 87 104 126 48
73 56 91 35 78 -8 -5 -9 -2 -4 12 4 10 13 39 19 62 11 43 11 45 -21 73 -18 16
-36 29 -40 29 -4 0 -15 -26 -24 -58z m-8 -157 c0 -8 -4 -15 -9 -15 -5 0 -13
-9 -16 -20 -3 -11 -13 -20 -22 -20 -14 0 -14 3 2 20 10 11 15 20 11 20 -9 0
17 29 27 30 4 0 7 -7 7 -15z"/>
<path d="M478 1067 c-24 -6 -38 -15 -42 -30 -10 -36 -7 -127 4 -127 6 0 26 15
46 33 33 30 35 36 32 82 l-3 51 -37 -9z"/>
<path d="M1866 925 c-14 -120 -25 -176 -39 -204 -18 -36 -10 -40 22 -10 31 29
41 61 47 148 5 59 2 81 -9 96 -14 18 -15 17 -21 -30z"/>
<path d="M342 886 c-37 -39 -50 -60 -45 -72 4 -12 3 -15 -5 -10 -8 5 -10 1 -5
-10 4 -12 3 -15 -5 -10 -8 5 -10 1 -5 -10 5 -13 3 -15 -7 -9 -9 5 -11 4 -6 -4
8 -13 -2 -53 -12 -47 -11 7 -3 -194 9 -249 l12 -49 40 44 c42 48 77 109 77
135 0 14 -3 14 -31 0 -31 -16 -68 -81 -69 -120 -1 -18 -2 -18 -10 -3 -8 12 -3
36 15 85 15 39 24 79 21 94 -3 15 3 38 14 56 17 28 17 32 2 47 -15 15 -15 17
0 33 16 15 17 14 23 -10 7 -26 7 -26 40 -10 30 14 32 19 24 40 -5 13 -9 49 -9
79 0 30 -4 54 -9 54 -4 0 -31 -24 -59 -54z"/>
<path d="M476 897 l-38 -32 17 -63 c10 -34 23 -62 29 -62 6 0 26 13 45 28 l33
28 -18 60 c-10 32 -21 62 -24 67 -3 4 -23 -7 -44 -26z m35 -58 c7 -14 8 -24 1
-31 -15 -15 -32 0 -32 28 0 30 15 31 31 3z"/>
<path d="M1400 834 c-30 -25 -59 -49 -63 -53 -4 -5 6 -22 22 -40 35 -38 46
-35 117 31 l43 40 -27 34 c-15 19 -29 34 -32 34 -3 0 -30 -21 -60 -46z m38
-45 c-37 -32 -48 -36 -48 -15 0 19 51 55 68 48 10 -3 4 -13 -20 -33z"/>
<path d="M587 759 c-46 -11 -87 -37 -87 -56 0 -17 37 -92 58 -115 24 -28 37
-22 76 38 40 60 41 81 9 120 -15 18 -24 20 -56 13z m44 -46 c13 -15 -2 -63
-21 -63 -5 0 -10 -7 -10 -15 0 -28 -30 -15 -47 20 -15 32 -15 36 1 54 20 22
61 24 77 4z"/>
<path d="M1248 742 c-61 -28 -62 -30 -37 -100 l9 -22 65 32 c36 18 65 36 65
40 0 7 -41 79 -43 77 -1 -1 -28 -13 -59 -27z m52 -37 c0 -15 -37 -35 -65 -35
-20 0 -8 25 18 38 32 15 47 14 47 -3z"/>
<path d="M383 733 c-45 -39 -64 -123 -28 -123 7 0 38 12 69 26 l56 25 -16 37
c-9 20 -18 43 -21 50 -8 19 -26 14 -60 -15z m31 -54 c-9 -10 -21 -19 -26 -19
-15 0 -8 29 9 39 26 14 37 2 17 -20z"/>
<path d="M1135 705 c-5 -2 -36 -9 -67 -15 l-58 -11 0 -49 c0 -27 4 -51 8 -54
13 -8 145 24 160 39 11 10 11 21 2 54 -10 38 -19 45 -45 36z m7 -37 c23 -9 25
-12 13 -24 -7 -8 -18 -14 -24 -14 -6 0 -11 -5 -11 -11 0 -5 -5 -7 -10 -4 -6 4
-17 2 -24 -4 -10 -8 -17 -7 -26 4 -7 8 -16 12 -21 9 -15 -9 -10 5 11 29 22 25
51 30 92 15z"/>
<path d="M681 628 c-17 -29 -31 -55 -31 -58 0 -10 -91 -5 -98 6 -4 6 -17 27
-30 47 -34 54 -38 45 -6 -13 15 -27 34 -52 43 -54 26 -8 85 -9 101 -3 8 4 44
8 80 9 58 3 66 6 77 28 6 14 13 39 15 55 l3 30 -62 3 -62 3 -30 -53z m102 18
c16 -12 16 -17 5 -35 -7 -12 -15 -21 -18 -22 -60 -8 -60 -8 -60 15 0 13 10 31
23 39 27 20 28 20 50 3z"/>
<path d="M891 671 c-18 -5 -29 -20 -42 -60 l-19 -53 71 4 c80 4 91 13 87 73
-3 38 -5 40 -38 42 -19 1 -46 -2 -59 -6z m52 -23 c12 -7 24 -14 26 -15 2 -1
-6 -14 -18 -29 -11 -15 -21 -21 -21 -14 0 10 -3 10 -15 0 -13 -11 -18 -10 -30
6 -21 27 -19 32 16 39 23 5 28 9 18 16 -22 13 -2 11 24 -3z"/>
<path d="M1337 647 c-21 -18 -24 -26 -15 -35 7 -7 20 -12 31 -12 13 0 17 -5
12 -19 -4 -12 0 -21 12 -25 17 -7 17 -8 1 -17 -22 -12 -23 -35 -3 -46 13 -8
10 -14 -16 -40 -25 -27 -29 -35 -19 -52 11 -21 -3 -31 -15 -11 -12 19 -23 10
-70 -55 -25 -36 -60 -72 -77 -81 -29 -15 -30 -15 -17 3 8 10 37 50 66 88 29
39 68 81 88 94 39 26 42 33 21 50 -12 10 -12 16 2 41 17 29 17 30 -18 58 l-34
29 -91 -30 c-49 -17 -91 -31 -92 -32 -2 -1 7 -26 18 -56 26 -68 27 -156 1
-232 -14 -43 -16 -57 -6 -57 7 0 15 4 18 9 3 4 32 18 65 30 119 43 214 162
215 270 1 53 -27 151 -42 151 -4 -1 -19 -11 -35 -23z m-38 -88 c16 -15 19 -24
11 -34 -6 -7 -8 -19 -4 -28 3 -10 -17 -38 -59 -82 l-64 -68 -5 72 c-3 39 -10
77 -16 84 -17 20 2 40 55 59 61 21 56 21 82 -3z"/>
<path d="M707 533 c-7 -13 -13 -190 -9 -273 3 -44 31 -39 81 15 28 30 41 53
39 67 -7 50 -56 17 -82 -56 -13 -37 -15 -38 -15 -13 -1 15 19 69 43 120 66
136 66 137 17 137 -21 0 -46 3 -54 6 -8 3 -17 2 -20 -3z"/>
<path d="M880 533 c-34 -4 -37 -7 -60 -74 -20 -60 -21 -72 -9 -80 57 -36 158
52 159 139 0 23 -5 24 -90 15z m38 -44 c4 -20 -35 -69 -54 -69 -19 0 -15 61 6
77 19 16 44 12 48 -8z"/>
</g>
</svg>
